<svg xmlns="http://www.w3.org/2000/svg" width="1280" height="340" viewBox="0 0 1280 340" role="img" aria-label="ABC Medya">
  <defs>
    <linearGradient id="spectrum" x1="0" y1="0" x2="1" y2="0">
      <stop offset="0%" stop-color="#00B9F2"/>
      <stop offset="50%" stop-color="#00AB4F"/>
      <stop offset="100%" stop-color="#FF7D24"/>
    </linearGradient>
    <clipPath id="card"><rect x="0" y="0" width="1280" height="340" rx="18"/></clipPath>
  </defs>
  <g clip-path="url(#card)">
    <rect x="0" y="0" width="1280" height="340" fill="#16181D"/>
    <g fill="none" stroke="url(#spectrum)" stroke-width="1.5">
      <circle cx="1108" cy="150" r="196" opacity="0.55"/>
      <circle cx="1108" cy="150" r="262" opacity="0.28"/>
      <circle cx="1108" cy="150" r="330" opacity="0.14"/>
    </g>
    <svg x="84" y="70" width="452" height="171" viewBox="434 932 1769 671" preserveAspectRatio="xMinYMid meet"><path d="M722.717,1258.135c-36.133,0-66.44,12.8-91.252,38.57a114.246,114.246,0,0,0-28.015,46.2l-72.691-72.581q2.237-3.712,4.628-7.375A223.835,223.835,0,0,1,720.719,1162.2q74.68,0,135.708,46.224,63.44,48.877,77.1,129.184c2.831,17.123,4.328,45.055,4.328,83.8v172.41H839.776v-38.9q-58.447,44.643-124.385,44.723-75.683,0-136.043-50.21a208.067,208.067,0,0,1-40.1-43.7l70.36-70.253a121.153,121.153,0,0,0,27.688,36.639q34.723,31.671,83.925,31.589,55.7,0,91.75-39.4,30.219-33.669,30.307-79.974c0-40.234-14.155-72.819-42.463-97.427Q768.094,1259.216,722.717,1258.135Z" fill="#FFFFFF"></path><path d="M1182.841,1261.242q-55.7,0-91.745,39.9-30.223,33.171-30.306,79.473c0,40.566,14.152,73.153,42.46,97.429q34.219,28.674,78.1,28.763c36.134,0,66.438-12.805,91.246-38.576a117.453,117.453,0,0,0,20.8-28.609l70.081,69.973a223.963,223.963,0,0,1-180.128,93.143q-74.685,0-135.713-46.22c-42.294-32.588-67.937-75.482-77.094-129.184-2.831-17.123-4.333-45.056-4.333-83.631V932.043h98.08V1210.2q58.446-44.887,124.386-44.889,75.678,0,136.043,49.711a204.151,204.151,0,0,1,29.01,29.041l-69.114,69.009a131.268,131.268,0,0,0-17.844-20.238Q1233.045,1262.155,1182.841,1261.242Z" fill="#FFFFFF"></path><path d="M1670.211,1602.74h-21.98c-47.457,0-78.429-.664-93.081-2.162s-30.805-5.653-48.289-12.468q-61.446-23.445-100.575-84.793-31.723-49.63-31.637-111.063,0-84.544,55.115-146.143c37.132-41.234,86.089-63.845,147.367-68.166,8.658-.664,33.632-1,74.6-1h18.484v94.6c-53.617,0-90.42,2.163-110.235,6.819-23.311,5.819-42.628,17.456-57.446,35.079-19.815,22.611-29.808,48.713-29.808,77.977q0,53.367,41.962,88.117a111.1,111.1,0,0,0,43.794,22.445c15.987,3.826,39.963,5.985,71.766,6.318h39.966Z" fill="#FFFFFF"></path><ellipse cx="500.24" cy="1395.84" rx="66.23" ry="66.13" fill="#FF2E17"></ellipse><path d="M2202.48,1602.753h-18.023V1500.175h-33.472v102.577h-18.021V1500.175h-6.439v-18h6.439v-29.82a34.759,34.759,0,1,1,69.516,0v150.393Zm-34.758-167.106a16.7,16.7,0,0,0-16.737,16.712v29.82h33.472v-29.82a16.691,16.691,0,0,0-16.734-16.712Zm-327.038,167.106H1822.66V1452.359a16.736,16.736,0,0,0-33.473,0v150.393h-18.02V1452.359a16.736,16.736,0,1,0-33.473,0v150.393h-18.024V1452.359a34.481,34.481,0,0,1,1.8-11.183,34,34,0,0,1,5.407-9.9,34.645,34.645,0,0,1,8.3-7.713,35.882,35.882,0,0,1,10.492-4.628H1763.7a31.533,31.533,0,0,1,8.755,3.663,36.879,36.879,0,0,1,7.724,6.362,33,33,0,0,1,7.725-6.362,32.607,32.607,0,0,1,9.269-3.663h18.023a33.649,33.649,0,0,1,10.428,4.434,32.041,32.041,0,0,1,8.111,7.647,34.282,34.282,0,0,1,5.212,9.963,36.676,36.676,0,0,1,1.739,11.377v150.393Zm243.057,0h-18.024V1498.891a34.017,34.017,0,0,1-10.459-4.435,32.752,32.752,0,0,1-8.206-7.649,34.032,34.032,0,0,1-5.312-9.962,36.044,36.044,0,0,1-1.771-11.375v-47.818h18.024v47.818a16.736,16.736,0,1,0,33.472,0v-47.818h18.024v47.818a36.055,36.055,0,0,1-1.771,11.375,34.057,34.057,0,0,1-5.31,9.962,32.786,32.786,0,0,1-8.208,7.649,34.014,34.014,0,0,1-10.46,4.435Zm-99.6,0h-34.758v-167.1h-6.436v-18h41.194a34.35,34.35,0,0,1,34.762,34.708v115.688a34.378,34.378,0,0,1-34.762,34.7Zm-16.735-167.1v149.109h16.735a16.691,16.691,0,0,0,16.738-16.709V1452.359a16.7,16.7,0,0,0-16.738-16.712Zm-36.346,167.1h-63.082v-167.1h-6.439v-18h69.521v18H1886v46.532h28.323v18H1886v84.581h45.058v17.995Z" fill="#FFFFFF" stroke="#FFFFFF" stroke-width="12" stroke-linejoin="round"></path></svg>
    <text x="88" y="286" fill="#7E8590" font-family="ui-monospace, SFMono-Regular, Menlo, Consolas, monospace" font-size="17" letter-spacing="3.2">EST. 2004 &#183; CAPPADOCIA &#183; CUSTOM SOFTWARE</text>
    <rect x="0" y="335" width="1280" height="5" fill="url(#spectrum)"/>
  </g>
</svg>
